<svg width="197" height="103" viewBox="0 0 197 103" fill="none" xmlns="http://www.w3.org/2000/svg">
<circle cx="160.5" cy="77.5001" r="15.5" transform="rotate(-3.87822 160.5 77.5001)" fill="#E07C58"/>
<path d="M181.488 76.0771C182.295 76.0224 182.998 76.6325 183 77.4411C183.01 81.3849 181.984 85.2716 180.011 88.7063C177.794 92.5651 174.483 95.6801 170.497 97.6572C166.51 99.6344 162.026 100.385 157.613 99.8139C153.2 99.243 149.055 97.3761 145.703 94.4495C142.35 91.5228 139.941 87.6678 138.78 83.372C137.618 79.0761 137.757 74.5323 139.178 70.3152C140.599 66.0981 143.239 62.3971 146.763 59.6802C149.9 57.2619 153.613 55.7199 157.522 55.1979C158.323 55.0909 159.023 55.7054 159.077 56.5122C159.132 57.3189 158.521 58.0117 157.721 58.1265C154.39 58.6044 151.229 59.9347 148.551 61.9993C145.485 64.3626 143.189 67.582 141.953 71.2503C140.717 74.9185 140.596 78.871 141.607 82.6077C142.617 86.3445 144.712 89.6978 147.628 92.2436C150.544 94.7893 154.15 96.4132 157.989 96.9099C161.828 97.4066 165.728 96.7537 169.196 95.0339C172.664 93.314 175.544 90.6045 177.472 87.2478C179.156 84.3155 180.047 81.0044 180.071 77.6393C180.077 76.8307 180.681 76.1318 181.488 76.0771Z" fill="#E07C58"/>
<path d="M30.2255 82L39.0815 56.8H34.0415L29.2175 70.876C29.0255 71.38 28.8455 71.944 28.6775 72.568C28.5095 73.168 28.3415 73.78 28.1735 74.404C27.9815 75.028 27.8135 75.64 27.6695 76.24C27.5255 76.816 27.3935 77.32 27.2735 77.752L28.6775 77.716C28.4615 76.972 28.2335 76.216 27.9935 75.448C27.7295 74.656 27.4535 73.876 27.1655 73.108C26.8535 72.34 26.5535 71.596 26.2655 70.876L21.9455 60.76H17.7335L13.5215 70.84C13.2095 71.584 12.9095 72.352 12.6215 73.144C12.3095 73.912 12.0335 74.668 11.7935 75.412C11.5295 76.156 11.3375 76.84 11.2175 77.464L12.4775 77.644C12.3815 77.212 12.2855 76.78 12.1895 76.348C12.0695 75.892 11.9495 75.424 11.8295 74.944C11.7095 74.464 11.5775 73.996 11.4335 73.54C11.2895 73.06 11.1455 72.58 11.0015 72.1C10.8335 71.62 10.6655 71.152 10.4975 70.696L5.1695 56.8H0.309501L10.0655 82H13.4495L20.3975 65.728L19.6775 65.872L26.5175 82H30.2255Z" fill="#216A61"/>
<path d="M33.657 83L66.057 13H73.157L105.457 83H99.757L75.257 29.8C74.1904 27.2667 73.357 25.3667 72.757 24.1C72.157 22.7667 71.657 21.7333 71.257 21C70.857 20.2667 70.4904 19.4333 70.157 18.5C69.8237 17.5 69.3237 16.1 68.657 14.3L70.157 14.2C69.4237 16.4 68.8237 18.0667 68.357 19.2C67.957 20.3333 67.5237 21.3333 67.057 22.2C66.5904 23 66.0904 24 65.557 25.2C65.0237 26.3333 64.257 28.0667 63.257 30.4L38.857 83H33.657ZM46.457 62.6L48.557 57.7H90.757L92.057 62.6H46.457Z" fill="#216A61"/>
<path d="M100.594 50V11.5H104.829L121.659 35.095L119.844 35.04L136.839 11.5H140.909V50H136.619V32.18C136.583 28.99 136.619 26.075 136.729 23.435C136.839 20.7583 137.059 18.0817 137.389 15.405L138.049 17L122.099 38.67H119.129L103.454 17.055L104.114 15.405C104.444 17.9717 104.664 20.575 104.774 23.215C104.884 25.8183 104.939 28.8067 104.939 32.18L104.884 50H100.594ZM157.42 50V11.5H185.03V15.68H161.71V45.82H184.92V50H157.42ZM159.62 32.29V28.11H181.95V32.29H159.62Z" fill="#216A61"/>
<path d="M21.3459 50.55C18.9259 50.55 16.6526 50.275 14.5259 49.725C12.3992 49.175 10.4192 48.3683 8.5859 47.305C6.78923 46.205 5.15757 44.83 3.6909 43.18L6.4409 39.66C8.60423 42.08 10.9142 43.84 13.3709 44.94C15.8642 46.0033 18.5592 46.535 21.4559 46.535C23.6926 46.535 25.7459 46.26 27.6159 45.71C29.5226 45.1233 31.0259 44.28 32.1259 43.18C33.2259 42.0433 33.7576 40.705 33.7209 39.165C33.7209 38.1383 33.4276 37.295 32.8409 36.635C32.2909 35.9383 31.5392 35.37 30.5859 34.93C29.6326 34.4533 28.5692 34.0867 27.3959 33.83C26.2592 33.5367 25.1226 33.2983 23.9859 33.115C22.8859 32.9317 21.8776 32.785 20.9609 32.675C18.7976 32.3083 16.7809 31.8867 14.9109 31.41C13.0409 30.9333 11.3909 30.31 9.9609 29.54C8.56757 28.7333 7.4859 27.725 6.7159 26.515C5.9459 25.2683 5.5609 23.7833 5.5609 22.06C5.5609 20.3 5.9459 18.76 6.7159 17.44C7.52257 16.0833 8.6409 14.9283 10.0709 13.975C11.5009 13.0217 13.1692 12.3067 15.0759 11.83C16.9826 11.3533 19.0359 11.115 21.2359 11.115C23.6192 11.115 25.7826 11.39 27.7259 11.94C29.7059 12.4533 31.4659 13.2233 33.0059 14.25C34.5459 15.24 35.8476 16.4683 36.9109 17.935L34.1059 21.07C33.0426 19.7867 31.8509 18.705 30.5309 17.825C29.2109 16.945 27.7626 16.2667 26.1859 15.79C24.6459 15.3133 22.9776 15.075 21.1809 15.075C19.0909 15.075 17.2209 15.35 15.5709 15.9C13.9209 16.45 12.6009 17.2017 11.6109 18.155C10.6576 19.1083 10.1809 20.2633 10.1809 21.62C10.1809 22.7933 10.4926 23.7833 11.1159 24.59C11.7392 25.36 12.6192 25.9833 13.7559 26.46C14.8926 26.9367 16.2126 27.34 17.7159 27.67C19.2559 27.9633 20.9242 28.2567 22.7209 28.55C24.6642 28.8067 26.5526 29.155 28.3859 29.595C30.2559 29.9983 31.9426 30.5667 33.4459 31.3C34.9492 31.9967 36.1409 32.95 37.0209 34.16C37.9009 35.3333 38.3409 36.8917 38.3409 38.835C38.3409 41.1083 37.6442 43.1433 36.2509 44.94C34.8576 46.7367 32.8959 48.13 30.3659 49.12C27.8359 50.0733 24.8292 50.55 21.3459 50.55Z" fill="#216A61"/>
<path d="M108.746 93.04L115.178 81.328L115.226 85.12L99.8658 56.8H105.674L113.21 71.536C114.17 73.328 114.986 74.96 115.658 76.432C116.362 77.872 116.826 79.152 117.05 80.272L116.33 80.32C116.746 79.232 117.274 77.936 117.914 76.432C118.554 74.928 119.338 73.264 120.266 71.44L127.322 56.8H133.13L119.69 82.24L114.026 93.04H108.746Z" fill="#216A61"/>
<path d="M9 90.25C8.0335 90.25 7.25 91.0335 7.25 92C7.25 92.9665 8.0335 93.75 9 93.75V90.25ZM9 93.75H114V90.25H9V93.75Z" fill="#216A61"/>
<circle cx="181.564" cy="72.5645" r="1.46843" transform="rotate(-3.87822 181.564 72.5645)" fill="#E07C58"/>
<path d="M47.6132 32.2578C46.6713 32.4229 45.7672 31.7932 45.6709 30.8417C45.3878 28.0473 45.5994 25.2201 46.3005 22.491C47.1455 19.2019 48.6822 16.1307 50.808 13.4824C52.9338 10.8341 55.5999 8.6696 58.6285 7.1332C61.657 5.59679 64.9783 4.72385 68.3709 4.5726C71.7635 4.42134 75.1494 4.99525 78.3026 6.25605C81.4558 7.51685 84.304 9.43553 86.657 11.8841C89.0101 14.3327 90.814 17.2549 91.9484 20.4558C92.8896 23.1118 93.3519 25.9089 93.3186 28.7174C93.3073 29.6737 92.4629 30.3813 91.51 30.3008C90.5571 30.2202 89.8576 29.3816 89.8572 28.4253C89.8561 26.1085 89.4608 23.8043 88.6841 21.6127C87.7142 18.8759 86.1719 16.3773 84.16 14.2838C82.1481 12.1902 79.7129 10.5497 77.0169 9.47168C74.3208 8.39369 71.4259 7.90299 68.5252 8.03231C65.6245 8.16164 62.7847 8.90801 60.1953 10.2217C57.6058 11.5353 55.3263 13.386 53.5087 15.6503C51.6911 17.9146 50.3772 20.5405 49.6547 23.3527C49.0761 25.6048 48.8875 27.935 49.0926 30.2428C49.1773 31.1953 48.5552 32.0928 47.6132 32.2578Z" fill="#E07C58"/>
</svg>
