<svg width="110" height="132" viewBox="0 0 110 132" fill="none" xmlns="http://www.w3.org/2000/svg">
<path d="M48.7485 99.1217C47.0015 99.3344 45.3941 98.0884 45.3758 96.3285C45.3078 89.8261 47.4463 83.4559 51.4936 78.2864C56.1991 72.2763 63.0994 68.3816 70.6765 67.4592C78.2536 66.5367 85.8868 68.662 91.8969 73.3675C97.0663 77.4148 100.671 83.0859 102.165 89.4147C102.569 91.1275 101.308 92.7228 99.561 92.9355C97.8139 93.1482 96.2475 91.8945 95.7894 90.1952C94.5353 85.544 91.8056 81.3902 87.968 78.3856C83.2888 74.7221 77.3459 73.0675 71.4467 73.7857C65.5475 74.5039 60.1752 77.5361 56.5117 82.2153C53.5072 86.0528 51.8538 90.7403 51.7524 95.5565C51.7153 97.3161 50.4955 98.9091 48.7485 99.1217Z" fill="#EF6423"/>
<path d="M80.5 130C77.2826 130 74.0967 129.366 71.1243 128.135C68.1518 126.904 65.4509 125.099 63.1759 122.824C60.9008 120.549 59.0962 117.848 57.865 114.876C56.6337 111.903 56 108.717 56 105.5C56 102.283 56.6337 99.0967 57.865 96.1243C59.0962 93.1518 60.9008 90.4509 63.1759 88.1759C65.4509 85.9008 68.1518 84.0962 71.1243 82.8649C74.0967 81.6337 77.2826 81 80.5 81L80.5 105.5L80.5 130Z" fill="#216A61"/>
<path d="M82.0252 10.7212C82.0973 8.95886 83.594 7.5635 85.3238 7.90845C89.5456 8.75036 93.4243 10.9088 96.378 14.1144C100.058 18.1084 102.001 23.4006 101.779 28.8269C101.557 34.2532 99.1886 39.3691 95.1947 43.0492C91.989 46.0029 87.947 47.8374 83.6706 48.3318C81.9185 48.5344 80.5406 47.0214 80.6127 45.2591C80.6848 43.4968 82.1883 42.1633 83.9218 41.8374C86.497 41.3533 88.9085 40.156 90.8665 38.3519C93.6146 35.8197 95.2442 32.2996 95.3969 28.5659C95.5496 24.8322 94.2128 21.1907 91.6807 18.4426C89.8766 16.4847 87.5709 15.0944 85.0438 14.4017C83.3428 13.9353 81.9531 12.4835 82.0252 10.7212Z" fill="#666666"/>
<path d="M82.8273 45.1736L31.6712 45.1734" stroke="#666666" stroke-width="6.5" stroke-linecap="round"/>
<path d="M27.0493 64.1355C26.9772 65.8978 25.4805 67.2932 23.7507 66.9482C19.529 66.1063 15.6502 63.9478 12.6965 60.7422C9.01647 56.7483 7.0737 51.4561 7.29562 46.0298C7.51754 40.6035 9.88597 35.4876 13.8799 31.8075C17.0855 28.8538 21.1275 27.0192 25.4039 26.5249C27.1561 26.3223 28.5339 27.8352 28.4618 29.5976C28.3897 31.3599 26.8862 32.6934 25.1527 33.0193C22.5775 33.5034 20.166 34.7007 18.2081 36.5048C15.46 39.037 13.8303 42.5571 13.6776 46.2908C13.5249 50.0245 14.8617 53.6659 17.3938 56.414C19.198 58.372 21.5036 59.7622 24.0307 60.455C25.7317 60.9213 27.1214 62.3731 27.0493 64.1355Z" fill="#216A61"/>
<path d="M26.2472 29.6831L77.4033 29.6832" stroke="#216A61" stroke-width="6.5" stroke-linecap="round"/>
</svg>
