<svg width="125" height="125" viewBox="0 0 125 125" fill="none" xmlns="http://www.w3.org/2000/svg">
<g id="Frame">
<path id="Vector" d="M85.625 43.75C85.625 42.27 84.885 40.9662 83.76 40.175C84.1463 39.585 84.375 38.8825 84.375 38.125C84.375 36.3175 83.0962 34.81 81.3937 34.455C81.6912 33.865 81.875 33.2063 81.875 32.5C81.875 30.2738 80.2062 28.4575 78.0563 28.1812C78.0913 27.9575 78.125 27.7338 78.125 27.5C78.125 25.0838 76.1662 23.125 73.75 23.125C73.4062 23.125 73.0762 23.1738 72.755 23.2488C72.0787 21.7063 70.5425 20.625 68.75 20.625C68.26 20.625 67.7962 20.7237 67.3562 20.8725C66.6712 19.9687 65.5963 19.375 64.375 19.375C63.41 19.375 62.54 19.75 61.875 20.3487C61.21 19.75 60.34 19.375 59.375 19.375C58.1537 19.375 57.0788 19.9687 56.3938 20.8725C55.9538 20.7237 55.49 20.625 55 20.625C53.2075 20.625 51.6713 21.7063 50.995 23.2488C50.6738 23.1738 50.3438 23.125 50 23.125C47.5837 23.125 45.625 25.0838 45.625 27.5C45.625 27.7338 45.6588 27.9575 45.6938 28.1812C43.5438 28.4575 41.875 30.2738 41.875 32.5C41.875 33.2063 42.0587 33.865 42.3562 34.455C40.6537 34.81 39.375 36.3175 39.375 38.125C39.375 38.8825 39.6038 39.585 39.99 40.175C38.865 40.9662 38.125 42.27 38.125 43.75C38.125 45.1475 38.7925 46.3775 39.8125 47.1787C39.5413 47.6425 39.375 48.175 39.375 48.75C39.375 50.4762 40.7737 51.875 42.5 51.875C43.5188 51.875 80.2313 51.875 81.25 51.875C82.9762 51.875 84.375 50.4762 84.375 48.75C84.375 48.175 84.2088 47.6425 83.9375 47.1787C84.9575 46.3775 85.625 45.1475 85.625 43.75Z" fill="#565FA1"/>
<path id="Vector_2" d="M85 91.25C79.5938 89.2225 76.015 87.9263 73.8662 87.1625C73.5087 87.035 73.1912 86.9237 72.9112 86.825C71.91 86.4725 71.25 85.5312 71.25 84.47V80.6775C76.8025 77.0662 81.25 71.2487 81.25 68.75C81.25 67.5 81.25 63.75 81.25 63.75C83.75 63.75 84.2262 61.3775 85 58.75C85.7125 56.3312 86.25 53.75 86.25 52.5C86.25 50.1562 79.375 49.375 79.375 49.375H79.37C79.3312 47.1875 78.9637 39.4913 75.7812 33.125C75.7812 33.125 70.625 30.625 62.5 30.625C54.375 30.625 49.2188 33.125 49.2188 33.125C46.0275 39.5087 45.5538 47.23 45.4825 49.3925C44.5413 49.5138 38.75 50.3463 38.75 52.5C38.75 53.75 39.2875 56.3312 40 58.75C40.7738 61.3775 41.25 63.75 43.75 63.75C43.75 63.75 43.75 67.5 43.75 68.75C43.75 71.2487 48.1975 77.0662 53.75 80.6775V84.47C53.75 85.5312 53.09 86.4725 52.0888 86.825C51.8088 86.9237 51.4913 87.0363 51.1338 87.1625C48.985 87.9263 45.4062 89.2225 40 91.25C30 95 30 105 30 105H95C95 105 95 95 85 91.25Z" fill="#EAD6C7"/>
<path id="Vector_3" d="M85 91.25C79.5938 89.2225 76.015 87.9263 73.8662 87.1625C73.555 87.0513 73.2862 86.9575 73.0337 86.8675C71.4725 87.5713 68.0363 88.75 62.5 88.75C56.9925 88.75 53.5425 87.57 51.9712 86.8662C51.7175 86.9562 51.4475 87.0513 51.1338 87.1625C48.985 87.9263 45.4062 89.2225 40 91.25C30 95 30 105 30 105H95C95 105 95 95 85 91.25Z" fill="#A3A3CD"/>
<path id="Vector_4" d="M79.375 50C79.375 50 79.5312 40.625 75.7812 33.125C75.7812 33.125 70.625 30.625 62.5 30.625C54.375 30.625 49.2187 33.125 49.2187 33.125C45.4688 40.625 45.4688 50 45.4688 50M59.375 66.875C59.375 66.875 60.3125 68.125 62.5 68.125C64.6875 68.125 65.625 66.875 65.625 66.875M54.09 80.1537C57.08 82.0975 59.9875 83.125 62.5 83.125C65.0125 83.125 67.92 82.0975 70.91 80.1537" stroke="#1F212B" stroke-miterlimit="10" stroke-linecap="round" stroke-linejoin="round"/>
<path id="Vector_5" d="M79.375 49.375C79.375 49.375 86.25 50.1562 86.25 52.5C86.25 53.75 85.7125 56.3313 85 58.75C84.2262 61.3775 83.75 63.75 81.25 63.75C81.25 63.75 81.25 67.5 81.25 68.75C81.25 71.2487 76.8025 77.0662 71.25 80.6775V84.47C71.25 85.5312 71.91 86.4725 72.9112 86.825C73.1912 86.9237 73.5087 87.0363 73.8662 87.1625C76.015 87.9263 79.5938 89.2225 85 91.25C95 95 95 105 95 105H30C30 105 30 95 40 91.25C45.4062 89.2225 48.985 87.9263 51.1338 87.1625C51.4913 87.035 51.8088 86.9237 52.0888 86.825C53.09 86.4725 53.75 85.5312 53.75 84.47V80.6775C48.1975 77.0662 43.75 71.2487 43.75 68.75C43.75 67.5 43.75 63.75 43.75 63.75C41.25 63.75 40.7738 61.3775 40 58.75C39.2875 56.3313 38.75 53.75 38.75 52.5C38.75 50.1562 45.625 49.375 45.625 49.375" stroke="#1F212B" stroke-width="2" stroke-miterlimit="10" stroke-linecap="round" stroke-linejoin="round"/>
<path id="Vector_6" d="M83.8875 50.4125C84.1925 49.93 84.375 49.3625 84.375 48.75C84.375 48.175 84.2088 47.6425 83.9375 47.1787C84.9575 46.3775 85.625 45.1475 85.625 43.75C85.625 42.27 84.885 40.9662 83.76 40.175C84.1463 39.585 84.375 38.8825 84.375 38.125C84.375 36.3175 83.0962 34.81 81.3937 34.455C81.6912 33.865 81.875 33.2062 81.875 32.5C81.875 30.2737 80.2062 28.4575 78.0562 28.1812C78.0912 27.9575 78.125 27.7337 78.125 27.5C78.125 25.0837 76.1662 23.125 73.75 23.125C73.4062 23.125 73.0762 23.1738 72.755 23.2488C72.0787 21.7063 70.5425 20.625 68.75 20.625C68.26 20.625 67.7962 20.7237 67.3562 20.8725C66.6712 19.9687 65.5962 19.375 64.375 19.375C63.41 19.375 62.54 19.75 61.875 20.3487C61.21 19.75 60.34 19.375 59.375 19.375C58.1538 19.375 57.0788 19.9687 56.3938 20.8725C55.9538 20.7237 55.49 20.625 55 20.625C53.2075 20.625 51.6713 21.7063 50.995 23.2488C50.6738 23.1738 50.3438 23.125 50 23.125C47.5838 23.125 45.625 25.0837 45.625 27.5C45.625 27.7337 45.6588 27.9575 45.6938 28.1812C43.5438 28.4575 41.875 30.2737 41.875 32.5C41.875 33.2062 42.0587 33.865 42.3562 34.455C40.6537 34.81 39.375 36.3175 39.375 38.125C39.375 38.8825 39.6038 39.585 39.99 40.175C38.865 40.9662 38.125 42.27 38.125 43.75C38.125 45.1475 38.7925 46.3775 39.8125 47.1787C39.5413 47.6425 39.375 48.175 39.375 48.75C39.375 49.5512 39.685 50.2737 40.1813 50.8262M50.625 86.875C50.625 86.875 54.375 89.375 62.5 89.375C63.1562 89.375 63.775 89.3537 64.375 89.3237M66.875 89.1087C67.7988 88.9925 68.625 88.8437 69.375 88.6812" stroke="#1F212B" stroke-miterlimit="10" stroke-linecap="round" stroke-linejoin="round"/>
<path id="Vector_7" d="M59.96 54.9188C59.7275 57.6575 58.49 60.975 53.92 61.245C47.4738 61.235 46.25 58.6025 46.25 53.75V51.475C46.25 50.1963 47.2112 49.1275 48.4825 48.9862C49.7512 48.8475 51.1237 48.75 52.5 48.75C55.0875 48.75 58.3125 49.3313 59.4613 50.6038C59.6588 51.1513 60.1412 52.7575 59.96 54.9188ZM60.5562 49.9662C59.0737 48.04 55 47.5 52.5 47.5C47.505 47.5 42.5187 48.7413 42.5 48.7413L42.9063 51.1525C44.6763 50.7163 45 52.5 45 53.75C45 58.75 46.25 62.495 53.9537 62.495C59.64 62.18 60.97 57.7888 61.205 55.0238C61.4588 52.01 60.555 49.9762 60.5562 49.9662Z" fill="#1F212B"/>
<path id="Vector_8" d="M65 53.9062C65 53.9062 64.375 52.5 62.5 52.5C60.625 52.5 60 53.75 60 53.75V51.25H65V53.9062ZM62.5 75C56.63 75 52.845 72.2125 52.6875 72.0938C52.48 71.9387 52.4388 71.6463 52.5938 71.4388C52.7488 71.2325 53.0412 71.1888 53.25 71.3438C53.2862 71.3713 56.9563 73.75 62.5 73.75C68.0438 73.75 71.7138 71.3713 71.75 71.3438C71.9588 71.1888 72.2512 71.2325 72.4062 71.4388C72.5612 71.6463 72.5187 71.9387 72.3125 72.0938C72.155 72.2125 68.37 75 62.5 75ZM53.75 50C52.7513 50 51.8975 50.7363 51.4962 51.7938C51.7225 51.4725 52.0775 51.25 52.5 51.25C53.19 51.25 53.75 51.81 53.75 52.5C53.75 53.19 53.19 53.75 52.5 53.75C51.8725 53.75 51.3762 53.28 51.2862 52.6788C51.2687 52.825 51.25 52.9725 51.25 53.125C51.25 54.8513 52.3687 56.25 53.75 56.25C55.1312 56.25 56.25 54.8513 56.25 53.125C56.25 51.3987 55.1312 50 53.75 50ZM71.25 50C70.2512 50 69.3975 50.7363 68.9962 51.7938C69.2225 51.4725 69.5775 51.25 70 51.25C70.69 51.25 71.25 51.81 71.25 52.5C71.25 53.19 70.69 53.75 70 53.75C69.3725 53.75 68.8762 53.28 68.7862 52.6788C68.7687 52.825 68.75 52.9725 68.75 53.125C68.75 54.8513 69.8687 56.25 71.25 56.25C72.6313 56.25 73.75 54.8513 73.75 53.125C73.75 51.3987 72.6313 50 71.25 50Z" fill="#1F212B"/>
<path id="Vector_9" d="M65.5387 50.6038C66.6875 49.3313 69.9125 48.75 72.5 48.75C73.8762 48.75 75.2487 48.8475 76.5175 48.9875C77.7887 49.1275 78.75 50.1963 78.75 51.475V53.75C78.75 58.6025 77.5263 61.235 71.0813 61.245C66.5113 60.975 65.2737 57.6575 65.0412 54.9188C64.8587 52.7575 65.3412 51.1513 65.5387 50.6038ZM63.795 55.0238C64.03 57.7888 65.3588 62.1787 71.0463 62.495C78.75 62.495 80 58.75 80 53.75C80 52.5 80.3238 50.7163 82.0938 51.1525L82.5 48.7413C82.4812 48.7413 77.495 47.5 72.5 47.5C70 47.5 65.9262 48.04 64.4437 49.9662C64.445 49.9762 63.5412 52.01 63.795 55.0238Z" fill="#1F212B"/>
<path id="Vector_10" d="M60 51.25H65V53.75C65 53.75 64.375 52.5 62.5 52.5C60.625 52.5 60 53.9062 60 53.9062V51.25ZM75.3925 44.6887L76.25 43.0512C74.6537 42.6787 72.95 42.4975 71.25 42.5C69.0875 42.5037 66.93 42.8087 65 43.4037L66.0813 45C67.6663 44.4787 69.4562 44.2225 71.25 44.2187C72.66 44.215 74.0737 44.3637 75.3925 44.6887ZM53.75 44.2187C55.5437 44.2225 57.3337 44.4787 58.9187 45L60 43.4037C58.07 42.8087 55.9125 42.505 53.75 42.5C52.05 42.4962 50.3462 42.6787 48.75 43.0512L49.6075 44.6887C50.9263 44.3637 52.34 44.215 53.75 44.2187Z" fill="#1F212B"/>
</g>
</svg>
