<svg width="171" height="231" viewBox="0 0 171 231" fill="none" xmlns="http://www.w3.org/2000/svg">
<circle cx="6.5" cy="6.5" r="6.5" transform="matrix(-1 0 0 1 48.0056 222)" fill="#216A61"/>
<path d="M125.664 273.655C125.451 275.402 126.697 277.009 128.457 277.028C134.959 277.096 141.33 274.957 146.499 270.91C152.509 266.204 156.404 259.304 157.326 251.727C158.249 244.15 156.124 236.517 151.418 230.506C147.371 225.337 141.7 221.733 135.371 220.238C133.658 219.834 132.063 221.095 131.85 222.842C131.637 224.589 132.891 226.156 134.59 226.614C139.242 227.868 143.395 230.598 146.4 234.435C150.063 239.115 151.718 245.057 151 250.957C150.282 256.856 147.249 262.228 142.57 265.892C138.733 268.896 134.045 270.55 129.229 270.651C127.469 270.688 125.876 271.908 125.664 273.655Z" fill="#666666"/>
<circle cx="6.5" cy="6.5" r="6.5" transform="matrix(0.258819 -0.965926 -0.965926 -0.258819 158.641 156.886)" fill="#EF6423"/>
<path d="M63.1196 114.526C61.7138 113.432 59.6778 113.679 58.6718 115.149C55.0816 120.397 52.4708 126.262 50.9761 132.461C49.229 139.707 49.047 147.242 50.4423 154.563C51.8376 161.885 54.7781 168.825 59.0676 174.92C63.3571 181.015 68.8971 186.126 75.3179 189.91C81.7388 193.695 88.8929 196.068 96.303 196.869C103.713 197.67 111.209 196.882 118.29 194.557C125.372 192.232 131.876 188.424 137.37 183.387C142.069 179.077 145.936 173.953 148.789 168.27C149.589 166.678 148.819 164.777 147.18 164.077C145.542 163.377 143.657 164.144 142.843 165.729C140.36 170.571 137.032 174.942 133.009 178.631C128.192 183.049 122.488 186.388 116.278 188.427C110.068 190.466 103.495 191.157 96.9966 190.454C90.4985 189.752 84.2249 187.671 78.5943 184.352C72.9637 181.033 68.1056 176.552 64.344 171.207C60.5824 165.862 58.0038 159.776 56.7802 153.355C55.5567 146.935 55.7163 140.327 57.2484 133.973C58.528 128.667 60.7404 123.639 63.7742 119.121C64.7674 117.642 64.5255 115.621 63.1196 114.526Z" fill="#EF6423"/>
<path d="M97.9104 155.027C98.3318 156.736 100.067 157.796 101.719 157.188C107.822 154.943 113.018 150.682 116.414 145.063C120.362 138.53 121.553 130.697 119.725 123.286C117.897 115.875 113.2 109.494 106.667 105.546C101.048 102.15 94.4672 100.794 88.0202 101.644C86.2754 101.874 85.2318 103.62 85.6532 105.328C86.0747 107.037 87.8029 108.056 89.5541 107.881C94.3475 107.402 99.1999 108.479 103.371 111C108.457 114.074 112.114 119.042 113.537 124.812C114.96 130.582 114.033 136.681 110.959 141.767C108.438 145.938 104.643 149.148 100.177 150.953C98.5451 151.612 97.489 153.318 97.9104 155.027Z" fill="#666666"/>
<path d="M78.3038 141.217C76.6714 140.56 74.7963 141.347 74.3231 143.042C72.5745 149.306 72.9913 156.012 75.5628 162.053C78.5525 169.076 84.2096 174.624 91.2898 177.476C98.3699 180.329 106.293 180.251 113.316 177.262C119.357 174.69 124.306 170.145 127.388 164.419C128.222 162.869 127.416 161.002 125.784 160.344C124.151 159.686 122.314 160.492 121.431 162.015C119.016 166.183 115.304 169.489 110.82 171.398C105.352 173.725 99.1835 173.785 93.6712 171.565C88.1589 169.344 83.7544 165.025 81.4268 159.557C79.5179 155.073 79.1341 150.117 80.2826 145.439C80.7022 143.729 79.9363 141.875 78.3038 141.217Z" fill="#216A61"/>
<circle cx="6.5" cy="6.5" r="6.5" transform="matrix(0.258819 -0.965926 -0.965926 -0.258819 158.641 156.886)" fill="#EF6423"/>
<circle cx="6.5" cy="6.5" r="6.5" transform="matrix(0.258819 -0.965926 -0.965926 -0.258819 75.6409 113.922)" fill="#EF6423"/>
<path d="M63.1196 114.526C61.7138 113.432 59.6778 113.679 58.6718 115.149C55.0816 120.397 52.4708 126.262 50.9761 132.461C49.229 139.707 49.047 147.242 50.4423 154.563C51.8376 161.885 54.7781 168.825 59.0676 174.92C63.3571 181.015 68.8971 186.126 75.3179 189.91C81.7388 193.695 88.8929 196.068 96.303 196.869C103.713 197.67 111.209 196.882 118.29 194.557C125.372 192.232 131.876 188.424 137.37 183.387C142.069 179.077 145.936 173.953 148.789 168.27C149.589 166.678 148.819 164.777 147.18 164.077C145.542 163.377 143.657 164.144 142.843 165.729C140.36 170.571 137.032 174.942 133.009 178.631C128.192 183.049 122.488 186.388 116.278 188.427C110.068 190.466 103.495 191.157 96.9966 190.454C90.4985 189.752 84.2249 187.671 78.5943 184.352C72.9637 181.033 68.1056 176.552 64.344 171.207C60.5824 165.862 58.0038 159.776 56.7802 153.355C55.5567 146.935 55.7163 140.327 57.2484 133.973C58.528 128.667 60.7404 123.639 63.7742 119.121C64.7674 117.642 64.5255 115.621 63.1196 114.526Z" fill="#EF6423"/>
<path d="M97.9104 155.027C98.3318 156.736 100.067 157.796 101.719 157.188C107.822 154.943 113.018 150.682 116.414 145.063C120.362 138.53 121.553 130.697 119.725 123.286C117.897 115.875 113.2 109.494 106.667 105.546C101.048 102.15 94.4672 100.794 88.0202 101.644C86.2754 101.874 85.2318 103.62 85.6532 105.328C86.0747 107.037 87.8029 108.056 89.5541 107.881C94.3475 107.402 99.1999 108.479 103.371 111C108.457 114.074 112.114 119.042 113.537 124.812C114.96 130.582 114.033 136.681 110.959 141.767C108.438 145.938 104.643 149.148 100.177 150.953C98.5451 151.612 97.489 153.318 97.9104 155.027Z" fill="#666666"/>
<path d="M78.3038 141.217C76.6714 140.56 74.7963 141.347 74.3231 143.042C72.5745 149.306 72.9913 156.012 75.5628 162.053C78.5525 169.076 84.2096 174.624 91.2898 177.476C98.3699 180.329 106.293 180.251 113.316 177.262C119.357 174.69 124.306 170.145 127.388 164.419C128.222 162.869 127.416 161.002 125.784 160.344C124.151 159.686 122.314 160.492 121.431 162.015C119.016 166.183 115.304 169.489 110.82 171.398C105.352 173.725 99.1835 173.785 93.6712 171.565C88.1589 169.344 83.7544 165.025 81.4268 159.557C79.5179 155.073 79.1341 150.117 80.2826 145.439C80.7022 143.729 79.9363 141.875 78.3038 141.217Z" fill="#216A61"/>
<path d="M120.2 43.3664C121.357 42.0409 121.23 40.0111 119.785 39.0069C114.444 35.2964 107.974 33.4851 101.423 33.9276C93.8074 34.4421 86.708 37.9608 81.6867 43.7097C76.6654 49.4586 74.1335 56.9668 74.648 64.5825C75.0905 71.1329 77.7556 77.3013 82.1507 82.094C83.3401 83.3911 85.3686 83.2443 86.5263 81.9188C87.6841 80.5933 87.5274 78.5931 86.3793 77.2592C83.2369 73.6079 81.3352 69.0156 81.0067 64.1529C80.6062 58.2236 82.5774 52.3781 86.4868 47.9023C90.3962 43.4264 95.9234 40.6869 101.853 40.2864C106.715 39.9579 111.522 41.2246 115.562 43.8474C117.039 44.8056 119.042 44.6919 120.2 43.3664Z" fill="#EF6423"/>
<path d="M137.006 106.5C137.006 109.717 137.639 112.903 138.871 115.876C140.102 118.848 141.906 121.549 144.181 123.824C146.456 126.099 149.157 127.904 152.13 129.135C155.102 130.366 158.288 131 161.506 131C164.723 131 167.909 130.366 170.881 129.135C173.854 127.904 176.555 126.099 178.83 123.824C181.105 121.549 182.909 118.848 184.141 115.876C185.372 112.903 186.006 109.717 186.006 106.5L161.506 106.5H137.006Z" fill="#EF6423"/>
<path d="M174.006 213.5C174.006 207.267 171.53 201.29 167.123 196.883C162.715 192.476 156.738 190 150.506 190C144.273 190 138.296 192.476 133.889 196.883C129.481 201.29 127.006 207.267 127.006 213.5L150.506 213.5L174.006 213.5Z" fill="#216A61"/>
<circle cx="13.9835" cy="13.9835" r="13.9835" transform="matrix(-0.99771 -0.0676361 -0.0676361 0.99771 118.189 48.7512)" fill="#216A61"/>
<path d="M109.679 82.354C107.916 82.4261 106.521 83.9229 106.866 85.6526C107.708 89.8744 109.866 93.7531 113.072 96.7068C117.066 100.387 122.358 102.33 127.784 102.108C133.211 101.886 138.326 99.5174 142.007 95.5235C144.96 92.3179 146.795 88.2759 147.289 83.9994C147.492 82.2473 145.979 80.8695 144.216 80.9415C142.454 81.0136 141.121 82.5172 140.795 84.2506C140.311 86.8258 139.113 89.2373 137.309 91.1953C134.777 93.9434 131.257 95.573 127.523 95.7257C123.79 95.8784 120.148 94.5417 117.4 92.0095C115.442 90.2054 114.052 87.8997 113.359 85.3727C112.893 83.6716 111.441 82.282 109.679 82.354Z" fill="#666666"/>
<path d="M144.131 83.1562L144.131 32" stroke="#666666" stroke-width="6.5" stroke-linecap="round"/>
<path d="M163.188 26.3802C164.95 26.3081 166.346 24.8114 166.001 23.0816C165.159 18.8599 163 14.9811 159.795 12.0274C155.801 8.34737 150.509 6.4046 145.082 6.62652C139.656 6.84844 134.54 9.21686 130.86 13.2108C127.906 16.4164 126.072 20.4584 125.577 24.7348C125.375 26.487 126.888 27.8648 128.65 27.7927C130.412 27.7206 131.746 26.2171 132.072 24.4836C132.556 21.9084 133.753 19.4969 135.557 17.539C138.09 14.7909 141.61 13.1612 145.343 13.0085C149.077 12.8558 152.718 14.1926 155.467 16.7247C157.425 18.5289 158.815 20.8345 159.508 23.3616C159.974 25.0626 161.426 26.4523 163.188 26.3802Z" fill="#216A61"/>
<path d="M128.736 25.5781L128.736 76.7342" stroke="#216A61" stroke-width="6.5" stroke-linecap="round"/>
<path d="M44.4536 197.334C44.4841 195.659 43.1481 194.262 41.4767 194.381C33.559 194.944 26.0507 198.265 20.2907 203.819C13.7995 210.077 10.0605 218.658 9.89606 227.674C9.73164 236.689 13.1553 245.401 19.414 251.892C24.9677 257.652 32.3499 261.245 40.2417 262.096C41.9077 262.276 43.2938 260.928 43.3243 259.253C43.3549 257.578 42.0171 256.212 40.3549 256C34.0745 255.199 28.2183 252.281 23.7823 247.68C18.6407 242.347 15.828 235.191 15.9631 227.784C16.0982 220.378 19.1699 213.329 24.5025 208.187C29.1034 203.751 35.0621 201.048 41.3675 200.477C43.0363 200.326 44.423 199.01 44.4536 197.334Z" fill="#666666"/>
<rect x="-3" y="3" width="43" height="41" rx="20.5" transform="matrix(-1 0 0 1 196 46)" stroke="#216A61" stroke-width="6"/>
<rect x="-3" y="3" width="97" height="41" rx="20.5" transform="matrix(-1 0 0 1 119.006 205)" stroke="#EF6423" stroke-width="6"/>
</svg>
