<svg width="174" height="232" viewBox="0 0 174 232" fill="none" xmlns="http://www.w3.org/2000/svg">
<circle cx="132.28" cy="228.5" r="6.5" fill="#216A61"/>
<path d="M48.1218 273.655C48.3345 275.402 47.0884 277.009 45.3286 277.028C38.8261 277.096 32.4559 274.957 27.2865 270.91C21.2764 266.204 17.3817 259.304 16.4592 251.727C15.5367 244.15 17.662 236.517 22.3675 230.506C26.4149 225.337 32.0859 221.733 38.4147 220.238C40.1275 219.834 41.7229 221.095 41.9356 222.842V222.842C42.1483 224.589 40.8945 226.156 39.1952 226.614C34.544 227.868 30.3902 230.598 27.3857 234.435C23.7222 239.115 22.0675 245.057 22.7857 250.957C23.5039 256.856 26.5361 262.228 31.2154 265.892C35.0529 268.896 39.7403 270.55 44.5566 270.651C46.3161 270.688 47.9091 271.908 48.1218 273.655V273.655Z" fill="#666666"/>
<circle cx="19.7408" cy="148.925" r="6.5" transform="rotate(-105 19.7408 148.925)" fill="#EF6423"/>
<path d="M110.666 114.526C112.072 113.432 114.108 113.679 115.114 115.149C118.704 120.397 121.315 126.262 122.809 132.461C124.557 139.707 124.739 147.242 123.343 154.563C121.948 161.885 119.008 168.825 114.718 174.92C110.428 181.015 104.889 186.126 98.4677 189.91C92.0468 193.695 84.8927 196.068 77.4826 196.869C70.0724 197.67 62.5766 196.882 55.4951 194.557C48.4136 192.232 41.9092 188.424 36.4159 183.387C31.7163 179.077 27.8492 173.953 24.9963 168.27C24.1969 166.678 24.9667 164.777 26.6051 164.077C28.2435 163.377 30.129 164.144 30.9421 165.729C33.4256 170.571 36.7533 174.942 40.7766 178.631C45.5938 183.049 51.2976 186.388 57.5076 188.427C63.7175 190.466 70.2908 191.157 76.7889 190.454C83.2871 189.752 89.5607 187.671 95.1913 184.352C100.822 181.033 105.68 176.552 109.442 171.207C113.203 165.862 115.782 159.776 117.005 153.355C118.229 146.935 118.069 140.327 116.537 133.973C115.258 128.667 113.045 123.639 110.011 119.121C109.018 117.642 109.26 115.621 110.666 114.526Z" fill="#EF6423"/>
<path d="M75.8752 155.027C75.4538 156.736 73.7182 157.796 72.0665 157.188C65.9635 154.943 60.7676 150.682 57.3719 145.063C53.424 138.53 52.2329 130.697 54.0606 123.286C55.8884 115.875 60.5853 109.494 67.1181 105.546C72.7371 102.15 79.3184 100.794 85.7654 101.644C87.5102 101.874 88.5538 103.62 88.1323 105.328C87.7109 107.037 85.9827 108.056 84.2315 107.881C79.4381 107.402 74.5857 108.479 70.4144 111C65.3283 114.074 61.6715 119.042 60.2484 124.812C58.8254 130.582 59.7527 136.681 62.8264 141.767C65.3472 145.938 69.1423 149.148 73.6087 150.953C75.2405 151.612 76.2966 153.318 75.8752 155.027Z" fill="#666666"/>
<path d="M95.4818 141.217C97.1142 140.56 98.9893 141.347 99.4625 143.042C101.211 149.306 100.794 156.012 98.2228 162.053C95.2331 169.076 89.576 174.624 82.4958 177.476C75.4157 180.329 67.4925 180.251 60.4693 177.262C54.4285 174.69 49.4791 170.145 46.3978 164.419C45.5639 162.869 46.3694 161.002 48.0018 160.344C49.6342 159.686 51.4718 160.492 52.3541 162.015C54.7693 166.183 58.4811 169.489 62.9655 171.398C68.4335 173.725 74.6021 173.785 80.1144 171.565C85.6267 169.344 90.0311 165.025 92.3588 159.557C94.2677 155.073 94.6515 150.117 93.503 145.439C93.0834 143.729 93.8493 141.875 95.4818 141.217Z" fill="#216A61"/>
<circle cx="19.7408" cy="148.925" r="6.5" transform="rotate(-105 19.7408 148.925)" fill="#EF6423"/>
<circle cx="102.741" cy="105.961" r="6.5" transform="rotate(-105 102.741 105.961)" fill="#EF6423"/>
<path d="M110.666 114.526C112.072 113.432 114.108 113.679 115.114 115.149C118.704 120.397 121.315 126.262 122.809 132.461C124.557 139.707 124.739 147.242 123.343 154.563C121.948 161.885 119.008 168.825 114.718 174.92C110.428 181.015 104.889 186.126 98.4677 189.91C92.0468 193.695 84.8927 196.068 77.4826 196.869C70.0724 197.67 62.5766 196.882 55.4951 194.557C48.4136 192.232 41.9092 188.424 36.4159 183.387C31.7163 179.077 27.8492 173.953 24.9963 168.27C24.1969 166.678 24.9667 164.777 26.6051 164.077C28.2435 163.377 30.129 164.144 30.9421 165.729C33.4256 170.571 36.7533 174.942 40.7766 178.631C45.5938 183.049 51.2976 186.388 57.5076 188.427C63.7175 190.466 70.2908 191.157 76.7889 190.454C83.2871 189.752 89.5607 187.671 95.1913 184.352C100.822 181.033 105.68 176.552 109.442 171.207C113.203 165.862 115.782 159.776 117.005 153.355C118.229 146.935 118.069 140.327 116.537 133.973C115.258 128.667 113.045 123.639 110.011 119.121C109.018 117.642 109.26 115.621 110.666 114.526Z" fill="#EF6423"/>
<path d="M75.8752 155.027C75.4538 156.736 73.7182 157.796 72.0665 157.188C65.9635 154.943 60.7676 150.682 57.3719 145.063C53.424 138.53 52.2329 130.697 54.0606 123.286C55.8884 115.875 60.5853 109.494 67.1181 105.546C72.7371 102.15 79.3184 100.794 85.7654 101.644C87.5102 101.874 88.5538 103.62 88.1323 105.328C87.7109 107.037 85.9827 108.056 84.2315 107.881C79.4381 107.402 74.5857 108.479 70.4144 111C65.3283 114.074 61.6715 119.042 60.2484 124.812C58.8254 130.582 59.7527 136.681 62.8264 141.767C65.3472 145.938 69.1423 149.148 73.6087 150.953C75.2405 151.612 76.2966 153.318 75.8752 155.027Z" fill="#666666"/>
<path d="M95.4818 141.217C97.1142 140.56 98.9893 141.347 99.4625 143.042C101.211 149.306 100.794 156.012 98.2228 162.053C95.2331 169.076 89.576 174.624 82.4958 177.476C75.4157 180.329 67.4925 180.251 60.4693 177.262C54.4285 174.69 49.4791 170.145 46.3978 164.419C45.5639 162.869 46.3694 161.002 48.0018 160.344C49.6342 159.686 51.4718 160.492 52.3541 162.015C54.7693 166.183 58.4811 169.489 62.9655 171.398C68.4335 173.725 74.6021 173.785 80.1144 171.565C85.6267 169.344 90.0311 165.025 92.3588 159.557C94.2677 155.073 94.6515 150.117 93.503 145.439C93.0834 143.729 93.8493 141.875 95.4818 141.217Z" fill="#216A61"/>
<path d="M53.586 43.3664C52.4283 42.0409 52.5556 40.0111 54.0009 39.0069C59.3412 35.2964 65.8121 33.4851 72.3625 33.9276C79.9782 34.4421 87.0775 37.9608 92.0989 43.7097C97.1202 49.4586 99.6521 56.9668 99.1376 64.5825C98.6951 71.1329 96.03 77.3013 91.6349 82.094C90.4454 83.3911 88.417 83.2443 87.2592 81.9188C86.1015 80.5933 86.2582 78.5931 87.4063 77.2592C90.5487 73.6079 92.4504 69.0156 92.7789 64.1529C93.1794 58.2236 91.2082 52.3781 87.2988 47.9023C83.3894 43.4264 77.8621 40.6869 71.9329 40.2864C67.0702 39.9579 62.2638 41.2246 58.2231 43.8474C56.7469 44.8056 54.7438 44.6919 53.586 43.3664Z" fill="#EF6423"/>
<path d="M36.78 106.5C36.78 109.717 36.1463 112.903 34.9151 115.876C33.6838 118.848 31.8792 121.549 29.6041 123.824C27.3291 126.099 24.6283 127.904 21.6558 129.135C18.6833 130.366 15.4974 131 12.28 131C9.06264 131 5.87676 130.366 2.90428 129.135C-0.0681934 127.904 -2.76905 126.099 -5.04409 123.824C-7.31912 121.549 -9.12378 118.848 -10.355 115.876C-11.5863 112.903 -12.22 109.717 -12.22 106.5L12.28 106.5H36.78Z" fill="#EF6423"/>
<path d="M-0.219972 213.5C-0.219972 207.267 2.25592 201.29 6.66302 196.883C11.0701 192.476 17.0474 190 23.28 190C29.5126 190 35.4899 192.476 39.897 196.883C44.3041 201.29 46.78 207.267 46.78 213.5L23.28 213.5L-0.219972 213.5Z" fill="#216A61"/>
<circle cx="70.4937" cy="61.7569" r="13.9835" transform="rotate(-3.87822 70.4937 61.7569)" fill="#216A61"/>
<path d="M64.107 82.354C65.8694 82.4261 67.2647 83.9229 66.9198 85.6526C66.0779 89.8744 63.9194 93.7531 60.7138 96.7068C56.7199 100.387 51.4277 102.33 46.0013 102.108C40.575 101.886 35.4591 99.5174 31.7791 95.5235C28.8253 92.3179 26.9908 88.2759 26.4964 83.9994C26.2939 82.2473 27.8068 80.8695 29.5691 80.9415C31.3315 81.0136 32.6649 82.5172 32.9908 84.2506C33.4749 86.8258 34.6722 89.2373 36.4764 91.1953C39.0085 93.9434 42.5286 95.573 46.2624 95.7257C49.9961 95.8784 53.6375 94.5417 56.3856 92.0095C58.3436 90.2054 59.7338 87.8997 60.4266 85.3727C60.8929 83.6716 62.3447 82.282 64.107 82.354Z" fill="#666666"/>
<path d="M29.6547 83.1562L29.6548 32" stroke="#666666" stroke-width="6.5" stroke-linecap="round"/>
<path d="M10.5975 26.3802C8.8352 26.3081 7.43985 24.8114 7.7848 23.0816C8.62671 18.8599 10.7852 14.9811 13.9908 12.0274C17.9847 8.34737 23.2769 6.4046 28.7032 6.62652C34.1296 6.84844 39.2455 9.21686 42.9255 13.2108C45.8793 16.4164 47.7138 20.4584 48.2082 24.7348C48.4107 26.487 46.8978 27.8648 45.1354 27.7927C43.3731 27.7206 42.0396 26.2171 41.7138 24.4836C41.2296 21.9084 40.0323 19.4969 38.2282 17.539C35.6961 14.7909 32.1759 13.1612 28.4422 13.0085C24.7085 12.8558 21.0671 14.1926 18.319 16.7247C16.361 18.5289 14.9708 20.8345 14.278 23.3616C13.8117 25.0626 12.3599 26.4523 10.5975 26.3802Z" fill="#216A61"/>
<path d="M45.0499 25.5781L45.0498 76.7342" stroke="#216A61" stroke-width="6.5" stroke-linecap="round"/>
<path d="M129.332 197.334C129.301 195.659 130.638 194.262 132.309 194.381C140.227 194.944 147.735 198.265 153.495 203.819C159.986 210.077 163.725 218.658 163.89 227.674C164.054 236.689 160.63 245.401 154.372 251.892C148.818 257.652 141.436 261.245 133.544 262.096C131.878 262.276 130.492 260.928 130.461 259.253C130.431 257.578 131.769 256.212 133.431 256C139.711 255.199 145.567 252.281 150.003 247.68C155.145 242.347 157.958 235.191 157.822 227.784C157.687 220.378 154.616 213.329 149.283 208.187C144.682 203.751 138.724 201.048 132.418 200.477C130.749 200.326 129.363 199.01 129.332 197.334Z" fill="#666666"/>
<path d="M0.5 49H1.5C12.8218 49 22 58.1782 22 69.5C22 80.8218 12.8218 90 1.5 90H0.5C-10.8218 90 -20 80.8218 -20 69.5C-20 58.1782 -10.8218 49 0.5 49Z" stroke="#216A61" stroke-width="6"/>
<rect x="51.78" y="208" width="97" height="41" rx="20.5" stroke="#EF6423" stroke-width="6"/>
</svg>
